<?xml version="1.0" standalone="no"?>
<!DOCTYPE svg PUBLIC "-//W3C//DTD SVG 20010904//EN"
 "http://www.w3.org/TR/2001/REC-SVG-20010904/DTD/svg10.dtd">
<svg version="1.0" xmlns="http://www.w3.org/2000/svg"
 width="1024.000000pt" height="214.000000pt" viewBox="0 0 1024.000000 214.000000"
 preserveAspectRatio="xMidYMid meet">
<metadata>
Created by potrace 1.16, written by Peter Selinger 2001-2019
</metadata>
<g transform="translate(0.000000,214.000000) scale(0.100000,-0.100000)"
fill="#000000" stroke="none">
<path d="M0 1655 l0 -486 3244 3 c1784 2 3242 -1 3239 -5 -3 -5 3 -3 14 3 10
7 26 25 36 41 9 16 27 34 41 40 15 7 28 23 31 40 6 27 35 62 35 41 0 -14 38
-22 44 -8 3 7 8 6 15 -4 10 -13 14 -12 31 9 11 13 20 28 20 35 0 6 9 17 21 24
19 12 20 12 13 -10 -6 -20 -5 -21 10 -9 14 12 16 11 16 -3 0 -9 8 -16 18 -16
31 -1 65 -35 57 -58 -3 -12 -10 -22 -15 -22 -5 0 -28 -20 -52 -45 -30 -31 -51
-45 -69 -45 -15 0 -33 -8 -40 -17 -11 -15 -11 -16 1 -5 8 6 31 12 52 12 21 0
38 3 38 8 0 4 544 6 1210 4 823 -1 1210 -5 1210 -12 0 -6 9 -2 21 9 19 18 42
29 92 45 19 6 24 26 6 26 -8 0 -8 4 1 15 20 24 2 37 -43 30 -84 -12 -77 61 8
82 31 7 39 13 37 29 -3 19 -2 19 13 -1 15 -19 16 -19 48 0 33 19 47 33 47 49
0 5 -9 1 -19 -8 -21 -19 -51 -15 -71 9 -10 12 -8 16 11 24 13 4 30 6 37 3 7
-2 19 3 26 13 16 22 80 29 71 8 -3 -8 -5 -21 -5 -28 0 -7 -19 -32 -41 -55 -30
-30 -38 -45 -31 -52 8 -8 13 -7 18 6 3 9 20 24 36 32 26 14 54 57 49 78 -1 4
6 14 16 22 15 11 20 11 30 -3 10 -13 8 -20 -14 -39 -25 -21 -25 -23 -5 -17 13
3 22 1 22 -6 0 -6 -4 -11 -9 -11 -4 0 -7 -16 -5 -35 1 -24 -2 -35 -11 -35 -14
0 -25 -21 -25 -50 0 -19 -26 -35 -34 -21 -3 4 -1 23 4 42 13 44 12 48 -5 25
-11 -14 -15 -16 -15 -5 -1 12 -3 12 -13 -1 -27 -33 -70 -65 -64 -49 3 10 -3
26 -13 37 -10 11 -16 23 -13 26 4 3 2 6 -3 6 -6 0 -23 -14 -40 -32 -18 -19
-23 -29 -12 -25 9 3 19 1 22 -6 3 -7 3 -2 1 9 -7 26 18 39 35 19 8 -10 7 -16
-6 -23 -11 -6 -14 -16 -10 -30 6 -18 11 -20 32 -11 14 5 30 7 34 4 5 -3 15 7
23 22 14 26 15 26 22 4 5 -17 -1 -29 -24 -53 -17 -18 -31 -26 -31 -20 0 14
-74 -20 -85 -38 -4 -6 -13 -7 -24 -1 -13 7 -20 4 -30 -12 -12 -18 -11 -23 8
-38 17 -14 19 -22 12 -42 -8 -20 -6 -26 14 -37 13 -7 28 -9 34 -6 15 9 25 -19
14 -38 -4 -8 -23 -31 -42 -51 -26 -29 -31 -39 -20 -46 8 -4 24 -6 35 -3 12 3
25 1 29 -5 3 -7 3 -10 -2 -9 -4 1 -30 -9 -58 -22 -27 -13 -58 -23 -69 -22 -10
0 -16 -2 -12 -5 3 -3 1 -12 -4 -18 -12 -14 -3 -45 12 -45 6 0 6 -6 -1 -14 -8
-10 -9 -16 -1 -21 5 -3 10 -3 10 2 0 16 46 30 57 17 13 -13 -2 -34 -24 -34 -7
0 -13 -4 -13 -10 0 -14 23 -13 38 2 19 19 14 -1 -9 -33 -11 -16 -18 -33 -14
-39 6 -9 -8 -23 -50 -54 -11 -8 -17 -18 -13 -22 4 -4 14 -1 23 6 10 8 15 9 15
2 0 -17 30 -3 77 35 52 41 77 43 38 3 -16 -17 -25 -30 -21 -30 5 0 4 -6 -2
-13 -18 -21 54 -13 80 9 18 16 20 16 15 2 -5 -14 -3 -15 21 -2 17 9 28 10 33
3 3 -5 10 -9 15 -8 25 4 34 -4 34 -31 0 -25 7 -33 42 -51 40 -20 42 -20 55 -3
7 10 13 44 13 81 0 64 7 75 30 48 7 -8 17 -15 22 -15 6 0 4 7 -3 17 -13 15
-11 16 13 10 22 -6 28 -3 33 14 6 17 9 19 16 8 7 -12 9 -12 9 0 0 8 3 11 6 8
4 -4 -1 -18 -11 -33 -15 -24 -16 -26 -1 -21 9 4 16 2 16 -3 0 -6 11 -10 24
-10 13 0 27 -6 29 -12 4 -9 6 -7 6 3 1 12 12 15 50 15 27 -1 48 1 45 3 -2 2 1
10 6 16 8 9 6 14 -6 19 -9 3 -20 4 -24 1 -10 -6 -24 13 -25 37 -1 13 4 16 21
12 12 -3 32 0 45 6 21 12 21 14 5 25 -12 9 -14 15 -6 20 6 4 21 -1 32 -12 12
-10 18 -12 14 -5 -4 6 -2 12 3 12 6 0 11 5 11 12 0 6 7 20 17 30 15 17 15 18
-13 19 -17 1 -22 3 -11 6 19 5 21 12 8 32 -7 10 -1 23 20 44 17 17 28 36 25
44 -3 8 -6 16 -6 17 0 1 -21 0 -47 -1 -34 -2 -44 0 -33 7 11 7 11 10 2 10 -7
0 -11 4 -8 9 4 5 -7 12 -23 16 -17 4 -33 15 -36 26 -4 10 -11 19 -16 19 -13 0
-11 -17 2 -26 8 -4 7 -9 -2 -15 -40 -24 -38 33 2 61 l30 22 25 -23 c24 -23 28
-20 24 16 -2 16 1 17 13 7 10 -8 18 -9 21 -3 7 11 -36 61 -53 61 -6 0 -11 5
-11 11 0 10 25 8 62 -6 9 -4 19 4 26 20 9 20 9 25 -3 25 -7 0 -17 -5 -20 -10
-4 -6 -12 -4 -21 5 -14 13 -14 17 2 32 13 13 19 14 22 5 8 -24 66 -45 119 -43
42 2 52 -1 56 -16 4 -15 5 -15 6 -2 0 9 8 19 16 23 11 4 15 -2 17 -22 5 -88
16 289 17 606 l1 372 -5120 0 -5120 0 0 -485z m9648 375 c27 -26 27 -35 2 -60
-11 -11 -17 -20 -13 -20 4 0 2 -5 -5 -12 -9 -9 -8 -16 5 -30 12 -14 13 -21 4
-32 -7 -8 -9 -25 -6 -38 7 -29 -14 -50 -50 -50 -14 0 -25 -4 -25 -8 0 -5 -8
-6 -18 -3 -10 2 -24 -2 -31 -11 -15 -17 -41 -10 -41 11 0 12 3 13 14 4 11 -9
19 -6 38 17 13 16 30 26 38 24 8 -3 4 6 -8 18 -17 15 -20 26 -13 33 7 7 15 6
25 -2 17 -14 28 -1 15 19 -13 22 -11 33 5 27 22 -9 26 3 8 23 -23 27 -23 62 1
88 25 27 28 27 55 2z"/>
<path d="M8073 749 c-13 -6 -14 -8 -3 -9 8 -2 22 -1 30 0 11 1 12 -1 3 -10 -6
-7 -29 -11 -52 -8 -44 4 -50 -2 -26 -22 8 -7 15 -9 15 -6 0 4 9 2 20 -4 11 -6
17 -16 14 -25 -5 -11 1 -15 20 -15 15 0 26 -6 26 -14 0 -10 -13 -13 -55 -10
-30 1 -60 6 -67 10 -7 4 -8 3 -4 -4 4 -7 15 -12 24 -12 9 0 26 -7 36 -15 10
-8 23 -12 27 -9 5 3 9 0 9 -7 0 -7 11 -9 33 -5 17 4 50 10 72 14 l40 7 -47 20
c-27 11 -48 23 -48 27 0 8 29 0 46 -14 7 -5 22 -4 35 1 13 5 18 10 10 10 -8 1
-11 7 -7 17 3 8 2 13 -2 10 -4 -2 -14 -1 -22 4 -8 5 -22 4 -32 -1 -14 -7 -23
-6 -35 7 -11 11 -18 13 -21 5 -5 -14 -22 -15 -22 -1 0 6 11 15 24 21 16 8 22
17 19 29 -5 19 -26 22 -60 9z"/>
</g>
</svg>
